<svg width="264" height="264" viewBox="0 0 264 264" fill="none" xmlns="http://www.w3.org/2000/svg">
<g filter="url(#filter0_b_306_217)">
<path fill-rule="evenodd" clip-rule="evenodd" d="M57.3188 0C52.9006 0 49.3188 3.58171 49.3188 7.99999V50.9333C49.3188 48.7242 51.1097 46.9333 53.3188 46.9333H196.176C198.385 46.9333 200.176 48.7242 200.176 50.9333V90.4167C200.176 92.6258 198.385 94.4167 196.176 94.4167H111.566C109.357 94.4167 107.566 96.2075 107.566 98.4167V127.725C107.566 129.934 109.357 131.725 111.566 131.725H186.957C189.166 131.725 190.957 133.516 190.957 135.725V175.208C190.957 177.417 189.166 179.208 186.957 179.208H111.566C109.357 179.208 107.566 180.999 107.566 183.208V217.067H256C260.418 217.067 264 213.485 264 209.067V8C264 3.58172 260.418 0 256 0H57.3188Z" fill="#C6D228"/>
</g>
<g filter="url(#filter1_b_306_217)">
<mask id="path-2-inside-1_306_217" fill="white">
<path fill-rule="evenodd" clip-rule="evenodd" d="M8 46.9333C3.58172 46.9333 0 50.5151 0 54.9333V256C0 260.418 3.58173 264 8.00001 264H206.681C211.1 264 214.681 260.418 214.681 256V54.9333C214.681 50.5151 211.1 46.9333 206.681 46.9333H196.176C198.385 46.9333 200.176 48.7242 200.176 50.9333V90.4167C200.176 92.6258 198.385 94.4167 196.176 94.4167H111.566C109.357 94.4167 107.566 96.2076 107.566 98.4167V127.725C107.566 129.934 109.357 131.725 111.566 131.725H186.957C189.166 131.725 190.957 133.516 190.957 135.725V175.208C190.957 177.417 189.166 179.208 186.957 179.208H111.566C109.357 179.208 107.566 180.999 107.566 183.208V217.067H57.3187C52.9004 217.067 49.3187 213.485 49.3187 209.067V50.9333C49.3187 48.7242 51.1095 46.9333 53.3187 46.9333H8Z"/>
</mask>
<path fill-rule="evenodd" clip-rule="evenodd" d="M8 46.9333C3.58172 46.9333 0 50.5151 0 54.9333V256C0 260.418 3.58173 264 8.00001 264H206.681C211.1 264 214.681 260.418 214.681 256V54.9333C214.681 50.5151 211.1 46.9333 206.681 46.9333H196.176C198.385 46.9333 200.176 48.7242 200.176 50.9333V90.4167C200.176 92.6258 198.385 94.4167 196.176 94.4167H111.566C109.357 94.4167 107.566 96.2076 107.566 98.4167V127.725C107.566 129.934 109.357 131.725 111.566 131.725H186.957C189.166 131.725 190.957 133.516 190.957 135.725V175.208C190.957 177.417 189.166 179.208 186.957 179.208H111.566C109.357 179.208 107.566 180.999 107.566 183.208V217.067H57.3187C52.9004 217.067 49.3187 213.485 49.3187 209.067V50.9333C49.3187 48.7242 51.1095 46.9333 53.3187 46.9333H8Z" fill="#949C1E"/>
<path d="M107.566 217.067V218.067H108.566V217.067H107.566ZM1 54.9333C1 51.0673 4.13401 47.9333 8 47.9333V45.9333C3.02944 45.9333 -1 49.9628 -1 54.9333H1ZM1 256V54.9333H-1V256H1ZM8.00001 263C4.13402 263 1 259.866 1 256H-1C-1 260.971 3.02945 265 8.00001 265V263ZM206.681 263H8.00001V265H206.681V263ZM213.681 256C213.681 259.866 210.547 263 206.681 263V265C211.652 265 215.681 260.971 215.681 256H213.681ZM213.681 54.9333V256H215.681V54.9333H213.681ZM206.681 47.9333C210.547 47.9333 213.681 51.0674 213.681 54.9333H215.681C215.681 49.9628 211.652 45.9333 206.681 45.9333V47.9333ZM196.176 47.9333H206.681V45.9333H196.176V47.9333ZM201.176 50.9333C201.176 48.1719 198.937 45.9333 196.176 45.9333V47.9333C197.833 47.9333 199.176 49.2765 199.176 50.9333H201.176ZM201.176 90.4167V50.9333H199.176V90.4167H201.176ZM196.176 95.4167C198.937 95.4167 201.176 93.1781 201.176 90.4167H199.176C199.176 92.0735 197.833 93.4167 196.176 93.4167V95.4167ZM111.566 95.4167H196.176V93.4167H111.566V95.4167ZM108.566 98.4167C108.566 96.7598 109.909 95.4167 111.566 95.4167V93.4167C108.805 93.4167 106.566 95.6553 106.566 98.4167H108.566ZM108.566 127.725V98.4167H106.566V127.725H108.566ZM111.566 130.725C109.909 130.725 108.566 129.382 108.566 127.725H106.566C106.566 130.486 108.805 132.725 111.566 132.725V130.725ZM186.957 130.725H111.566V132.725H186.957V130.725ZM191.957 135.725C191.957 132.964 189.718 130.725 186.957 130.725V132.725C188.614 132.725 189.957 134.068 189.957 135.725H191.957ZM191.957 175.208V135.725H189.957V175.208H191.957ZM186.957 180.208C189.718 180.208 191.957 177.97 191.957 175.208H189.957C189.957 176.865 188.614 178.208 186.957 178.208V180.208ZM111.566 180.208H186.957V178.208H111.566V180.208ZM108.566 183.208C108.566 181.551 109.909 180.208 111.566 180.208V178.208C108.805 178.208 106.566 180.447 106.566 183.208H108.566ZM108.566 217.067V183.208H106.566V217.067H108.566ZM57.3187 218.067H107.566V216.067H57.3187V218.067ZM48.3187 209.067C48.3187 214.037 52.3481 218.067 57.3187 218.067V216.067C53.4527 216.067 50.3187 212.933 50.3187 209.067H48.3187ZM48.3187 50.9333V209.067H50.3187V50.9333H48.3187ZM53.3187 45.9333C50.5573 45.9333 48.3187 48.1719 48.3187 50.9333H50.3187C50.3187 49.2765 51.6618 47.9333 53.3187 47.9333V45.9333ZM8 47.9333H53.3187V45.9333H8V47.9333Z" fill="#C6D228" mask="url(#path-2-inside-1_306_217)"/>
</g>
<defs>
<filter id="filter0_b_306_217" x="41.3188" y="-8" width="230.681" height="233.067" filterUnits="userSpaceOnUse" color-interpolation-filters="sRGB">
<feFlood flood-opacity="0" result="BackgroundImageFix"/>
<feGaussianBlur in="BackgroundImageFix" stdDeviation="4"/>
<feComposite in2="SourceAlpha" operator="in" result="effect1_backgroundBlur_306_217"/>
<feBlend mode="normal" in="SourceGraphic" in2="effect1_backgroundBlur_306_217" result="shape"/>
</filter>
<filter id="filter1_b_306_217" x="-8" y="38.9333" width="230.681" height="233.067" filterUnits="userSpaceOnUse" color-interpolation-filters="sRGB">
<feFlood flood-opacity="0" result="BackgroundImageFix"/>
<feGaussianBlur in="BackgroundImageFix" stdDeviation="4"/>
<feComposite in2="SourceAlpha" operator="in" result="effect1_backgroundBlur_306_217"/>
<feBlend mode="normal" in="SourceGraphic" in2="effect1_backgroundBlur_306_217" result="shape"/>
</filter>
</defs>
</svg>
